<?xml version="1.0" encoding="utf-8"?>
<!-- Generator: Adobe Illustrator 16.0.3, SVG Export Plug-In . SVG Version: 6.00 Build 0)  -->
<!DOCTYPE svg PUBLIC "-//W3C//DTD SVG 1.1//EN" "http://www.w3.org/Graphics/SVG/1.1/DTD/svg11.dtd">
<svg version="1.1" id="Capa_1" xmlns="http://www.w3.org/2000/svg" xmlns:xlink="http://www.w3.org/1999/xlink" x="0px" y="0px"
	 width="512px" height="442.063px" viewBox="0 0 512 442.063" enable-background="new 0 0 512 442.063" xml:space="preserve">
<path fill="#90E36A" d="M431.609,14.809c28.48,13.277,40.68,51.449,34.438,95.797v0.008L340.191,233.98l-0.531,0.18
	c-3.18-9.418-8.039-18.469-14.238-27.027l0.449-0.332l10.742-157.375C366.48,16.539,403.301,1.609,431.609,14.809z"/>
<path fill="#FFE9CB" d="M493.258,83.938L340.191,233.98l-0.531,0.18c-3.18-9.418-8.039-18.469-14.238-27.027l0.449-0.332
	c0.266-3.883,13.289-194.703,13.301-194.844c-36.621,13.281-69.609,42.75-88.77,83.859c-7.078,15.18-12.078,31.508-15.008,48.176
	c-24.668-9.059-50.84-14.176-75.398-14.176c-45.301,0-85.898,17.398-113.406,44.906c5.152,1.82,227.332,80.281,237.402,83.84
	c-26.852,9.746-230.801,83.793-237.504,86.227c27.5,27.578,68.16,45.02,113.508,45.02c61.477,0,133.055-32.059,165.875-77.938
	l1.582,1.141c59.945,5.148,128.887-43.652,158.586-107.32C505.176,164.645,506.566,120.484,493.258,83.938z"/>
<path fill="#90E36A" d="M283.992,258.563L81.77,331.98l-0.25-0.699C39.098,318.109,10,291.051,10,259.813
	c0-31.719,29.988-59.121,73.477-72.059L283.992,258.563z"/>
<path d="M149.996,159.813c-5.52,0-10,4.48-10,10s4.48,10,10,10s10-4.48,10-10S155.516,159.813,149.996,159.813z"/>
<path d="M191.891,163.141c-5.406-1.117-10.695,2.367-11.809,7.773c-1.117,5.41,2.367,10.699,7.773,11.813
	c31.688,6.527,72.285,22.305,88.582,39.836c3.762,4.043,10.09,4.273,14.133,0.516c4.047-3.762,4.277-10.09,0.516-14.133
	C270.934,187.266,226.746,170.32,191.891,163.141z"/>
<path d="M495.469,74.184c-3.313-0.754-6.781,0.23-9.211,2.609l-8.625,8.457c-0.746-37.977-15.762-67.367-41.797-79.508
	c-25.922-12.086-58.008-4.77-87.504,18.887l0.816-11.992c0.23-3.371-1.258-6.633-3.961-8.668c-2.699-2.035-6.246-2.566-9.426-1.414
	c-40.477,14.68-74.891,47.133-94.418,89.031c-5.762,12.355-10.258,25.531-13.453,39.285c-22.887-7.246-46.145-11.059-67.895-11.059
	c-46.16,0-90.074,17.438-120.477,47.84c-2.43,2.43-3.441,5.934-2.68,9.281c0.758,3.348,3.184,6.074,6.422,7.219l11.402,4.027
	C20.371,204.879,0,230.934,0,259.813c0,28.68,20.305,54.734,54.395,71.469l-11.316,4.109c-3.211,1.168-5.605,3.891-6.348,7.227
	c-0.746,3.332,0.266,6.816,2.68,9.234c30.387,30.477,74.34,47.957,120.586,47.957c61.504,0,133.09-30.52,169.848-76.629
	c2.094,0.117,4.195,0.199,6.32,0.199c65.258,0,130.84-53.227,158.938-113.461c19.508-41.844,22.262-89.012,7.551-129.402
	C501.492,77.32,498.785,74.938,495.469,74.184z M259.469,100.039c14.891-31.957,39.414-57.656,68.609-72.406l-10.59,155.172
	c-18.418-18.082-42.984-33.832-70.645-45.086C249.75,124.473,253.969,111.824,259.469,100.039z M20,259.813
	c0-25.301,24.73-49.23,63.281-61.527l171.051,60.406L82.484,321.082C44.457,308.723,20,284.828,20,259.813z M159.996,379.809
	c-35.129,0-68.656-11.277-94.313-31.352l221.723-80.496c3.969-1.441,6.605-5.223,6.586-9.445c-0.02-4.219-2.688-7.977-6.668-9.383
	L65.949,170.957c25.633-19.941,59.055-31.145,94.047-31.145c78.41,0,173.996,55.133,173.996,120
	C333.992,325.078,237.672,379.809,159.996,379.809z M336.027,204.855l10.32-151.215c27.074-28.543,58.617-40.223,81.035-29.77
	c22.613,10.543,33.906,42.539,29.188,82.031L343.207,217.023C341.105,212.918,338.723,208.855,336.027,204.855z M476.977,201.465
	c-24.121,51.707-79.371,97.969-134.02,101.68c7.324-14.086,11.035-28.602,11.035-43.332c0-7.512-1-15.043-2.945-22.465l122-119.594
	c0.035-0.031,0.063-0.066,0.094-0.102l15.266-14.961C495.766,134.449,491.82,169.625,476.977,201.465z"/>
<g>
	<g>
		<path fill="#8C4A37" d="M254.99,367.395c-2.835-1.701-3.754-5.371-2.054-8.207c1.7-2.834,5.37-3.754,8.205-2.053
			c2.831,1.697,6.508,0.777,8.206-2.055l9.96-16.613c2.464-4.109,6.386-7.014,11.032-8.176l21.461-5.371
			c3.203-0.803,6.45,1.143,7.254,4.346c0.8,3.207-1.144,6.453-4.351,7.254l-21.46,5.373c-1.53,0.383-2.869,1.377-3.677,2.725
			l-9.961,16.613C274.519,369.717,263.476,372.48,254.99,367.395z"/>
		<path fill="#8C4A37" d="M258.94,313.506c-2.836-1.701-3.755-5.369-2.055-8.205c1.701-2.836,5.369-3.754,8.205-2.055
			c2.831,1.697,6.51,0.775,8.207-2.053l7.498-12.51c4.241-7.074,12.719-10.34,20.604-7.941l26.854,8.27
			c3.144,0.924,4.941,4.297,3.979,7.459c-0.955,3.16-4.298,4.941-7.459,3.98l-26.508-8.063c-2.63-0.793-5.797,0.086-7.212,2.447
			l-7.499,12.508C278.468,315.83,267.426,318.596,258.94,313.506L258.94,313.506z"/>
		<path fill="#8C4A37" d="M337.937,277.846l-1.257-26.204c-0.094-2.004-1.181-3.815-2.899-4.845l-15.371-9.217
			c-8.485-5.086-11.249-16.13-6.162-24.615c1.7-2.836,5.37-3.754,8.205-2.055c2.837,1.701,3.755,5.37,2.055,8.206
			c-1.697,2.83-0.776,6.509,2.054,8.206l15.371,9.215c5.154,3.092,8.41,8.521,8.695,14.531l1.26,26.205
			c0.161,3.299-2.386,6.102-5.688,6.26C340.929,283.689,338.095,281.172,337.937,277.846z"/>
	</g>
	<path fill="#663325" d="M410.042,323.012c-1.414-2.988-0.141-6.555,2.844-7.965l23.708-11.236
		c5.436-2.58,11.758-2.268,16.914,0.824l15.37,9.215c2.83,1.699,6.508,0.777,8.204-2.055c1.7-2.834,5.371-3.754,8.205-2.053
		c2.837,1.699,3.755,5.369,2.055,8.205c-5.087,8.484-16.129,11.25-24.615,6.162l-15.371-9.215c-1.717-1.031-3.826-1.137-5.637-0.275
		l-23.708,11.236C415.007,327.281,411.448,325.977,410.042,323.012z"/>
	<path fill="#663325" d="M378.104,441.209c-8.485-5.088-11.25-16.131-6.161-24.615l9.961-16.613
		c0.807-1.348,1.055-2.998,0.672-4.527l-5.373-21.459c-0.803-3.207,1.144-6.453,4.35-7.256c3.205-0.801,6.451,1.145,7.252,4.35
		l5.373,21.459c1.166,4.648,0.448,9.475-2.016,13.584l-9.96,16.613c-1.697,2.83-0.776,6.508,2.054,8.205
		c2.837,1.701,3.756,5.371,2.055,8.205C384.609,441.99,380.939,442.908,378.104,441.209z"/>
	<path fill="#663325" d="M423.775,412.336c-8.486-5.088-11.25-16.129-6.162-24.615l7.499-12.508c1.416-2.361,1.043-5.363-0.9-7.311
		l-19.938-19.785c-2.339-2.336-2.341-6.125-0.004-8.455c2.338-2.344,6.118-2.379,8.455-0.006l19.941,19.791
		c5.836,5.826,6.945,14.842,2.706,21.916l-7.5,12.508c-1.697,2.83-0.776,6.508,2.053,8.205c2.837,1.701,3.756,5.371,2.056,8.207
		C430.28,413.117,426.611,414.037,423.775,412.336L423.775,412.336z"/>
	<path fill="#FDBF00" d="M415.109,293.129l-23.469-14.072l-23.471-14.07c-18.908,2.377-34.478,6.037-48.375,29.215
		c-20.352,33.945-16.198,73.975,9.26,89.238c25.459,15.266,62.725,0.07,83.075-33.875
		C426.028,326.387,421.919,310.928,415.109,293.129z"/>
	<path fill="#FF9100" d="M412.13,349.564c13.898-23.178,9.789-38.637,2.979-56.436l-23.469-14.072l-62.586,104.383
		C354.514,398.705,391.779,383.51,412.13,349.564z"/>
	<path fill="#663325" d="M379.123,258.939c-6.273-14.841-4.87-32.302,3.423-46.133c1.698-2.835,5.37-3.754,8.204-2.054
		c2.837,1.7,3.755,5.37,2.055,8.205c-6.335,10.565-7.46,23.982-2.662,35.325c1.289,3.04-0.136,6.551-3.18,7.836
		C383.906,263.414,380.401,261.967,379.123,258.939L379.123,258.939z"/>
	<path fill="#3A1A12" d="M408.783,275.203c-0.301-3.291,2.126-6.203,5.414-6.498c12.266-1.113,23.57-8.426,29.905-18.991
		c1.7-2.836,5.369-3.755,8.205-2.054c2.835,1.699,3.755,5.368,2.055,8.205c-8.294,13.83-23.031,23.294-39.081,24.753
		C412.017,280.918,409.082,278.512,408.783,275.203z"/>
	<circle fill="#663325" cx="377.255" cy="349.575" r="5.981"/>
	<circle fill="#663325" cx="389.556" cy="329.056" r="5.981"/>
	<path fill="#8C4A37" d="M351.595,299.32c2.833,1.699,3.753,5.373,2.055,8.205c-1.699,2.834-5.372,3.754-8.205,2.057
		c-2.834-1.701-3.754-5.373-2.054-8.207C345.089,298.543,348.763,297.623,351.595,299.32z"/>
	<circle fill="#8C4A37" cx="336.217" cy="324.97" r="5.981"/>
	<path fill="#8C4A37" d="M409.022,250.068c-14.819-8.885-37.786,4.863-44.104,15.399c-6.785,11.316-0.796,27.418,13.347,35.898
		c14.142,8.48,31.166,6.174,37.95-5.143C422.533,285.688,423.84,258.951,409.022,250.068z"/>
	<path fill="#663325" d="M416.216,296.223c6.317-10.535,7.624-37.271-7.193-46.155l-30.757,51.297
		C392.407,309.846,409.432,307.539,416.216,296.223z"/>
</g>
</svg>
