<?xml version="1.0" encoding="UTF-8"?>
<svg xmlns="http://www.w3.org/2000/svg" xmlns:xlink="http://www.w3.org/1999/xlink" width="28pt" height="49pt" viewBox="0 0 28 49" version="1.1">
<g id="surface1">
<path style=" stroke:none;fill-rule:nonzero;fill:rgb(100%,91.372549%,79.607843%);fill-opacity:1;" d="M 15.632812 33.839844 L 15.613281 33.785156 C 16.554688 33.472656 17.460938 32.996094 18.316406 32.382812 L 18.351562 32.429688 L 24.632812 23.519531 C 25.539062 21.089844 26.050781 18.511719 26.050781 16.09375 C 26.050781 11.632812 24.308594 7.636719 21.558594 4.925781 C 21.375 5.433594 13.53125 27.3125 13.175781 28.304688 C 12.199219 25.660156 4.796875 5.578125 4.550781 4.917969 C 1.792969 7.625 0.0507812 11.628906 0.0507812 16.09375 C 0.0507812 22.148438 7.84375 32.429688 7.84375 32.429688 Z M 15.632812 33.839844 "/>
<path style=" stroke:none;fill-rule:nonzero;fill:rgb(56.470588%,89.019608%,41.568627%);fill-opacity:1;" d="M 15.132812 28.0625 L 7.792969 8.148438 L 7.863281 8.125 C 9.179688 3.949219 11.886719 1.082031 15.007812 1.082031 C 18.179688 1.082031 20.921875 4.035156 22.214844 8.316406 Z M 15.132812 28.0625 "/>
<path style=" stroke:none;fill-rule:nonzero;fill:rgb(0%,0%,0%);fill-opacity:1;" d="M 24.046875 14.75 C 24.046875 14.207031 23.597656 13.765625 23.046875 13.765625 C 22.492188 13.765625 22.046875 14.207031 22.046875 14.75 C 22.046875 15.296875 22.492188 15.734375 23.046875 15.734375 C 23.597656 15.734375 24.046875 15.296875 24.046875 14.75 Z M 24.046875 14.75 "/>
<path style=" stroke:none;fill-rule:nonzero;fill:rgb(0%,0%,0%);fill-opacity:1;" d="M 23.492188 18.84375 C 23.605469 18.308594 23.257812 17.789062 22.714844 17.679688 C 22.175781 17.570312 21.644531 17.910156 21.535156 18.445312 C 20.882812 21.566406 19.304688 25.5625 17.550781 27.167969 C 17.148438 27.539062 17.125 28.160156 17.5 28.558594 C 17.875 28.957031 18.507812 28.980469 18.914062 28.609375 C 21.082031 26.625 22.773438 22.273438 23.492188 18.84375 Z M 23.492188 18.84375 "/>
<path style=" stroke:none;fill-rule:nonzero;fill:rgb(0%,0%,0%);fill-opacity:1;" d="M 12.347656 34.640625 C 14.230469 34.828125 16.199219 34.859375 17.941406 34 C 22.351562 31.988281 24.910156 27.546875 26.582031 23.253906 C 28.664062 17.875 28.554688 11.476562 25.34375 6.539062 C 24.605469 5.5 23.886719 4.320312 22.777344 3.644531 C 21.65625 3.363281 21.433594 4.628906 21.152344 5.386719 C 19.792969 2.476562 16.941406 -0.296875 13.453125 0.0273438 C 10.398438 0.300781 8.101562 2.777344 6.84375 5.359375 C 6.554688 4.609375 6.328125 3.355469 5.210938 3.632812 C 3.949219 4.445312 3.125 5.808594 2.324219 7.046875 C -0.5625 11.851562 -0.585938 17.882812 1.296875 23.046875 C 2.773438 27.175781 5.292969 31.183594 9.140625 33.523438 C 10.132812 34.089844 11.1875 34.523438 12.347656 34.640625 Z M 13.988281 1.972656 C 16.886719 2.0625 18.785156 4.765625 19.765625 7.171875 C 20.238281 7.871094 20.097656 8.585938 19.75 9.292969 C 17.867188 14.542969 15.984375 19.796875 14.101562 25.046875 C 12.023438 19.40625 9.941406 13.765625 7.863281 8.125 C 8.734375 5.542969 10.382812 2.679688 13.289062 2.035156 C 13.519531 1.992188 13.753906 1.972656 13.988281 1.972656 Z M 1.988281 15.757812 C 1.984375 12.441406 3.039062 9.09375 5.125 6.46875 C 7.808594 13.75 10.492188 21.027344 13.175781 28.304688 C 13.914062 29.730469 15.285156 28.472656 15.386719 27.375 C 17.882812 20.414062 20.378906 13.457031 22.875 6.496094 C 26.191406 10.644531 26.6875 16.386719 25.140625 21.324219 C 23.84375 25.523438 21.476562 29.722656 17.503906 31.972656 C 14.859375 33.515625 11.410156 32.988281 9.09375 31.097656 C 5.164062 27.976562 2.949219 23.152344 2.179688 18.320312 C 2.058594 17.46875 1.988281 16.613281 1.988281 15.757812 Z M 1.988281 15.757812 "/>
<path style=" stroke:none;fill-rule:nonzero;fill:rgb(0%,0%,0%);fill-opacity:1;" d="M 13.933594 49.03125 L 9.65625 41.605469 L 5.792969 35.160156 L 14.464844 35.226562 L 22.0625 35.15625 L 17.667969 42.515625 Z M 13.933594 49.03125 "/>
</g>
</svg>
